# xmcd CD database file
#
# Track frame offsets:
#	150
#	10587
#	25537
#	35145
#	46795
#	58215
#	71900
#	85517
#	97960
#	110160
#	122315
#	134175
#	144582
#	156502
#	159472
#	170972
#	184105
#	194575
#	205177
#	224392
#	235940
#	246627
#	261222
#
# Disc length: 3658 seconds
#
# Revision: 6
# Processed by: cddbd v1.5.2PL0 Copyright (c) Steve Scherf et al.
# Submitted via: CDex 1.70beta2
#
DISCID=5b0e4817
DTITLE=Django Reinhardt - Unknown CD for MusicBrainz and FreeDB
DYEAR=1992
DGENRE=Jazz
TTITLE0=Douce ambiance
TTITLE1=Manoir de mes rêves
TTITLE2=Oui (si tu me dis oui)
TTITLE3=Cavalerie
TTITLE4=Fleur d'ennuï
TTITLE5=Blues clair
TTITLE6=Improvisation no 3, Part 1
TTITLE7=Improvisation no 3, Part 2
TTITLE8=Belleville
TTITLE9=Oubli
TTITLE10=Zuiderzee blues
TTITLE11=A B C
TTITLE12=Gaiment
TTITLE13=Mélodie au crepuscule (extrait)
TTITLE14=Blues d'autrefois
TTITLE15=Place de Broukere
TTITLE16=Welcome, Part 2
TTITLE17=I can' t Give You Anything But Love
TTITLE18=Artillerie lourde
TTITLE19=Djangology
TTITLE20=Swing Guitars
TTITLE21=Manoir de mes rêves v.2
TTITLE22=Are You In The Mood?
EXTD=donuk YEAR: 1992
EXTT0=
EXTT1=
EXTT2=
EXTT3=
EXTT4=
EXTT5=
EXTT6=
EXTT7=
EXTT8=
EXTT9=
EXTT10=
EXTT11=
EXTT12=
EXTT13=
EXTT14=
EXTT15=
EXTT16=
EXTT17=
EXTT18=
EXTT19=
EXTT20=
EXTT21=
EXTT22=
PLAYORDER=
